<?xml version="1.0" encoding="UTF-8" standalone="no"?>
<!DOCTYPE svg PUBLIC "-//W3C//DTD SVG 1.1//EN" "http://www.w3.org/Graphics/SVG/1.1/DTD/svg11.dtd">
<svg width="100%" height="100%" viewBox="0 0 348 348" version="1.1" xmlns="http://www.w3.org/2000/svg" xmlns:xlink="http://www.w3.org/1999/xlink" xml:space="preserve" xmlns:serif="http://www.serif.com/" style="fill-rule:evenodd;clip-rule:evenodd;">
    <path d="M5.079,5.776L341.992,5.776L341.992,343.446L5.08,343.446L5.079,5.776Z" style="fill:none;fill-rule:nonzero;stroke:black;stroke-width:2px;"/>
    <path d="M282.734,40.554C282.734,32.178 289.7,25.389 298.294,25.389C302.42,25.389 306.378,26.986 309.295,29.83C312.213,32.674 313.853,36.532 313.853,40.554C313.853,48.93 306.887,55.719 298.293,55.719C289.7,55.719 282.734,48.929 282.734,40.554Z" style="fill:none;fill-rule:nonzero;stroke:black;stroke-width:2px;"/>
    <g transform="matrix(1,0,0,1,4.41375,1.94967)">
        <rect x="46.932" y="64.882" width="231.843" height="231.843" style="fill:none;stroke:black;stroke-width:2px;stroke-linecap:round;stroke-miterlimit:1.5;"/>
    </g>
    <g transform="matrix(1,0,0,1,82.2224,-6.02274)">
        <path d="M85.045,46.522L112.555,62.467L57.536,62.467L85.045,46.522Z" style="fill:none;stroke:black;stroke-width:2px;stroke-linecap:round;stroke-miterlimit:1.5;"/>
    </g>
    <g transform="matrix(6.12323e-17,1,-1,6.12323e-17,355.476,97.1405)">
        <path d="M85.045,46.522L112.555,62.467L57.536,62.467L85.045,46.522Z" style="fill:none;stroke:black;stroke-width:2px;stroke-linecap:round;stroke-miterlimit:1.5;"/>
    </g>
    <g transform="matrix(1,0,0,-1,82.2224,370.394)">
        <path d="M85.045,46.522L112.555,62.467L57.536,62.467L85.045,46.522Z" style="fill:none;stroke:black;stroke-width:2px;stroke-linecap:round;stroke-miterlimit:1.5;"/>
    </g>
    <g transform="matrix(6.12323e-17,1,1,-6.12323e-17,-20.9409,97.1405)">
        <path d="M85.045,46.522L112.555,62.467L57.536,62.467L85.045,46.522Z" style="fill:none;stroke:black;stroke-width:2px;stroke-linecap:round;stroke-miterlimit:1.5;"/>
    </g>
    <g transform="matrix(1,0,0,1,-1.71524,16.471)">
        <g transform="matrix(1,0,0,1,11.494,-8.33334)">
            <circle cx="76.137" cy="94.345" r="5.698"/>
        </g>
        <g transform="matrix(1,0,0,1,43.9402,-8.33334)">
            <circle cx="76.137" cy="94.345" r="5.698"/>
        </g>
        <g transform="matrix(1,0,0,1,76.3864,-8.33334)">
            <circle cx="76.137" cy="94.345" r="5.698"/>
        </g>
        <g transform="matrix(1,0,0,1,108.833,-8.33334)">
            <circle cx="76.137" cy="94.345" r="5.698"/>
        </g>
        <g transform="matrix(1,0,0,1,141.279,-8.33334)">
            <circle cx="76.137" cy="94.345" r="5.698"/>
        </g>
        <g transform="matrix(1,0,0,1,173.725,-8.33334)">
            <circle cx="76.137" cy="94.345" r="5.698"/>
        </g>
    </g>
    <g transform="matrix(1,0,0,1,-1.71524,48.5007)">
        <g transform="matrix(1,0,0,1,11.494,-8.33334)">
            <circle cx="76.137" cy="94.345" r="5.698"/>
        </g>
        <g transform="matrix(1,0,0,1,43.9402,-8.33334)">
            <circle cx="76.137" cy="94.345" r="5.698"/>
        </g>
        <g transform="matrix(1,0,0,1,76.3864,-8.33334)">
            <circle cx="76.137" cy="94.345" r="5.698"/>
        </g>
        <g transform="matrix(1,0,0,1,108.833,-8.33334)">
            <circle cx="76.137" cy="94.345" r="5.698"/>
        </g>
        <g transform="matrix(1,0,0,1,141.279,-8.33334)">
            <circle cx="76.137" cy="94.345" r="5.698"/>
        </g>
        <g transform="matrix(1,0,0,1,173.725,-8.33334)">
            <circle cx="76.137" cy="94.345" r="5.698"/>
        </g>
    </g>
    <g transform="matrix(1,0,0,1,-1.71524,80.5303)">
        <g transform="matrix(1,0,0,1,11.494,-8.33334)">
            <circle cx="76.137" cy="94.345" r="5.698"/>
        </g>
        <g transform="matrix(1,0,0,1,43.9402,-8.33334)">
            <circle cx="76.137" cy="94.345" r="5.698"/>
        </g>
        <g transform="matrix(1,0,0,1,76.3864,-8.33334)">
            <circle cx="76.137" cy="94.345" r="5.698"/>
        </g>
        <g transform="matrix(1,0,0,1,108.833,-8.33334)">
            <circle cx="76.137" cy="94.345" r="5.698"/>
        </g>
        <g transform="matrix(1,0,0,1,141.279,-8.33334)">
            <circle cx="76.137" cy="94.345" r="5.698"/>
        </g>
        <g transform="matrix(1,0,0,1,173.725,-8.33334)">
            <circle cx="76.137" cy="94.345" r="5.698"/>
        </g>
    </g>
    <g transform="matrix(1,0,0,1,-1.71524,112.56)">
        <g transform="matrix(1,0,0,1,11.494,-8.33334)">
            <circle cx="76.137" cy="94.345" r="5.698"/>
        </g>
        <g transform="matrix(1,0,0,1,43.9402,-8.33334)">
            <circle cx="76.137" cy="94.345" r="5.698"/>
        </g>
        <g transform="matrix(1,0,0,1,76.3864,-8.33334)">
            <circle cx="76.137" cy="94.345" r="5.698"/>
        </g>
        <g transform="matrix(1,0,0,1,108.833,-8.33334)">
            <circle cx="76.137" cy="94.345" r="5.698"/>
        </g>
        <g transform="matrix(1,0,0,1,141.279,-8.33334)">
            <circle cx="76.137" cy="94.345" r="5.698"/>
        </g>
        <g transform="matrix(1,0,0,1,173.725,-8.33334)">
            <circle cx="76.137" cy="94.345" r="5.698"/>
        </g>
    </g>
    <g transform="matrix(1,0,0,1,-1.71524,144.59)">
        <g transform="matrix(1,0,0,1,11.494,-8.33334)">
            <circle cx="76.137" cy="94.345" r="5.698"/>
        </g>
        <g transform="matrix(1,0,0,1,43.9402,-8.33334)">
            <circle cx="76.137" cy="94.345" r="5.698"/>
        </g>
        <g transform="matrix(1,0,0,1,76.3864,-8.33334)">
            <circle cx="76.137" cy="94.345" r="5.698"/>
        </g>
        <g transform="matrix(1,0,0,1,108.833,-8.33334)">
            <circle cx="76.137" cy="94.345" r="5.698"/>
        </g>
        <g transform="matrix(1,0,0,1,141.279,-8.33334)">
            <circle cx="76.137" cy="94.345" r="5.698"/>
        </g>
        <g transform="matrix(1,0,0,1,173.725,-8.33334)">
            <circle cx="76.137" cy="94.345" r="5.698"/>
        </g>
    </g>
    <g transform="matrix(1,0,0,1,-1.71524,176.619)">
        <g transform="matrix(1,0,0,1,11.494,-8.33334)">
            <circle cx="76.137" cy="94.345" r="5.698"/>
        </g>
        <g transform="matrix(1,0,0,1,43.9402,-8.33334)">
            <circle cx="76.137" cy="94.345" r="5.698"/>
        </g>
        <g transform="matrix(1,0,0,1,76.3864,-8.33334)">
            <circle cx="76.137" cy="94.345" r="5.698"/>
        </g>
        <g transform="matrix(1,0,0,1,108.833,-8.33334)">
            <circle cx="76.137" cy="94.345" r="5.698"/>
        </g>
        <g transform="matrix(1,0,0,1,141.279,-8.33334)">
            <circle cx="76.137" cy="94.345" r="5.698"/>
        </g>
        <g transform="matrix(1,0,0,1,173.725,-8.33334)">
            <circle cx="76.137" cy="94.345" r="5.698"/>
        </g>
    </g>
    <g transform="matrix(1,0,0,1,56.8517,88.0103)">
        <circle cx="61.51" cy="46.502" r="15.545" style="fill:none;stroke:black;stroke-width:2px;stroke-linecap:round;stroke-miterlimit:1.5;"/>
    </g>
    <g transform="matrix(1,0,0,1,56.8517,184.148)">
        <circle cx="61.51" cy="46.502" r="15.545" style="fill:none;stroke:black;stroke-width:2px;stroke-linecap:round;stroke-miterlimit:1.5;"/>
    </g>
    <g transform="matrix(1,0,0,1,153.914,88.0103)">
        <circle cx="61.51" cy="46.502" r="15.545" style="fill:none;stroke:black;stroke-width:2px;stroke-linecap:round;stroke-miterlimit:1.5;"/>
    </g>
    <g transform="matrix(1,0,0,1,153.914,184.148)">
        <circle cx="61.51" cy="46.502" r="15.545" style="fill:none;stroke:black;stroke-width:2px;stroke-linecap:round;stroke-miterlimit:1.5;"/>
    </g>
</svg>
