<?xml version="1.0" encoding="UTF-8" standalone="no"?>
<!DOCTYPE svg PUBLIC "-//W3C//DTD SVG 1.1//EN" "http://www.w3.org/Graphics/SVG/1.1/DTD/svg11.dtd">
<svg width="100%" height="100%" viewBox="0 0 800 800" version="1.1" xmlns="http://www.w3.org/2000/svg" xmlns:xlink="http://www.w3.org/1999/xlink" xml:space="preserve" xmlns:serif="http://www.serif.com/" style="fill-rule:evenodd;clip-rule:evenodd;stroke-miterlimit:5.5;">
    <g id="Ebene1" transform="matrix(1,0,0,1,100,100)">
        <g transform="matrix(1,0,0,1,-100,-100)">
            <rect x="100" y="100" width="600" height="600" style="fill:none;stroke:black;stroke-width:3px;stroke-dasharray:0,3,3,3;"/>
        </g>
        <g transform="matrix(1,0,0,1,-100,-100)">
            <path d="M100,100L200.002,100" style="fill:none;stroke:black;stroke-width:6px;"/>
        </g>
        <g transform="matrix(1,0,0,1,-100,-100)">
            <path d="M299.993,100L500.038,100" style="fill:none;stroke:black;stroke-width:6px;"/>
        </g>
        <g transform="matrix(1,0,0,1,-100,-100)">
            <path d="M600,100L600,200L500.038,200" style="fill:none;stroke:black;stroke-width:6px;"/>
        </g>
        <g transform="matrix(1,0,0,1,-100,-100)">
            <path d="M400.015,200L400,400" style="fill:none;stroke:black;stroke-width:6px;"/>
        </g>
        <g transform="matrix(1,0,0,1,-100,-100)">
            <path d="M299.993,200L200.002,200L200.002,300" style="fill:none;stroke:black;stroke-width:6px;"/>
        </g>
        <g transform="matrix(1,0,0,1,-100,-100)">
            <path d="M299.993,300L299.993,500L400,500L400.015,600" style="fill:none;stroke:black;stroke-width:6px;"/>
        </g>
        <g transform="matrix(1,0,0,1,-100,-100)">
            <path d="M299.993,600L299.993,700L500.038,700" style="fill:none;stroke:black;stroke-width:6px;"/>
        </g>
        <g transform="matrix(1,0,0,1,-100,-100)">
            <path d="M200.002,700L100,700L100,500" style="fill:none;stroke:black;stroke-width:6px;"/>
        </g>
        <g transform="matrix(1,0,0,1,-100,-100)">
            <path d="M100,200L100,400L200.002,400" style="fill:none;stroke:black;stroke-width:6px;"/>
        </g>
        <g transform="matrix(1,0,0,1,-100,-100)">
            <path d="M200.002,500L200.002,600" style="fill:none;stroke:black;stroke-width:6px;"/>
        </g>
        <g transform="matrix(1,0,0,1,-100,-100)">
            <path d="M500.038,600L500.038,400" style="fill:none;stroke:black;stroke-width:6px;"/>
        </g>
        <g transform="matrix(1,0,0,1,-100,-100)">
            <path d="M600,600L700,600" style="fill:none;stroke:black;stroke-width:6px;"/>
        </g>
        <g transform="matrix(1,0,0,1,-100,-100)">
            <path d="M700,500L700,700" style="fill:none;stroke:black;stroke-width:6px;"/>
        </g>
        <g transform="matrix(1,0,0,1,-100,-100)">
            <path d="M600,500L600,300L500.038,300" style="fill:none;stroke:black;stroke-width:6px;"/>
        </g>
        <g transform="matrix(1,0,0,1,-100,-100)">
            <path d="M700,400L700,200" style="fill:none;stroke:black;stroke-width:6px;"/>
        </g>
        <g>
            <g transform="matrix(1,0,0,1,156.302,-159.501)">
                <circle cx="-106.302" cy="209.501" r="13.501" style="fill:none;stroke:black;stroke-width:3px;"/>
            </g>
            <g transform="matrix(1,0,0,1,256.302,-159.501)">
                <circle cx="-106.302" cy="209.501" r="13.501" style="fill:none;stroke:black;stroke-width:3px;"/>
            </g>
            <g transform="matrix(1,0,0,1,356.302,-159.501)">
                <circle cx="-106.302" cy="209.501" r="13.501" style="fill:none;stroke:black;stroke-width:3px;"/>
            </g>
            <g transform="matrix(1,0,0,1,456.302,-159.501)">
                <circle cx="-106.302" cy="209.501" r="13.501" style="fill:none;stroke:black;stroke-width:3px;"/>
            </g>
            <g transform="matrix(1,0,0,1,556.302,-159.501)">
                <circle cx="-106.302" cy="209.501" r="13.501" style="fill:none;stroke:black;stroke-width:3px;"/>
            </g>
            <g transform="matrix(1,0,0,1,656.302,-159.501)">
                <circle cx="-106.302" cy="209.501" r="13.501" style="fill:none;stroke:black;stroke-width:3px;"/>
            </g>
        </g>
        <g transform="matrix(1,0,0,1,0,100)">
            <g transform="matrix(1,0,0,1,156.302,-159.501)">
                <circle cx="-106.302" cy="209.501" r="13.501" style="fill:none;stroke:black;stroke-width:3px;"/>
            </g>
            <g transform="matrix(1,0,0,1,256.302,-159.501)">
                <circle cx="-106.302" cy="209.501" r="13.501" style="fill:none;stroke:black;stroke-width:3px;"/>
            </g>
            <g transform="matrix(1,0,0,1,356.302,-159.501)">
                <circle cx="-106.302" cy="209.501" r="13.501" style="fill:none;stroke:black;stroke-width:3px;"/>
            </g>
            <g transform="matrix(1,0,0,1,456.302,-159.501)">
                <circle cx="-106.302" cy="209.501" r="13.501" style="fill:none;stroke:black;stroke-width:3px;"/>
            </g>
            <g transform="matrix(1,0,0,1,556.302,-159.501)">
                <circle cx="-106.302" cy="209.501" r="13.501" style="fill:none;stroke:black;stroke-width:3px;"/>
            </g>
            <g transform="matrix(1,0,0,1,656.302,-159.501)">
                <circle cx="-106.302" cy="209.501" r="13.501" style="fill:none;stroke:black;stroke-width:3px;"/>
            </g>
        </g>
        <g transform="matrix(1,0,0,1,0,200)">
            <g transform="matrix(1,0,0,1,156.302,-159.501)">
                <circle cx="-106.302" cy="209.501" r="13.501" style="fill:none;stroke:black;stroke-width:3px;"/>
            </g>
            <g transform="matrix(1,0,0,1,256.302,-159.501)">
                <circle cx="-106.302" cy="209.501" r="13.501" style="fill:none;stroke:black;stroke-width:3px;"/>
            </g>
            <g transform="matrix(1,0,0,1,356.302,-159.501)">
                <circle cx="-106.302" cy="209.501" r="13.501" style="fill:none;stroke:black;stroke-width:3px;"/>
            </g>
            <g transform="matrix(1,0,0,1,456.302,-159.501)">
                <circle cx="-106.302" cy="209.501" r="13.501" style="fill:none;stroke:black;stroke-width:3px;"/>
            </g>
            <g transform="matrix(1,0,0,1,556.302,-159.501)">
                <circle cx="-106.302" cy="209.501" r="13.501" style="fill:none;stroke:black;stroke-width:3px;"/>
            </g>
            <g transform="matrix(1,0,0,1,656.302,-159.501)">
                <circle cx="-106.302" cy="209.501" r="13.501" style="fill:none;stroke:black;stroke-width:3px;"/>
            </g>
        </g>
        <g transform="matrix(1,0,0,1,0,300)">
            <g transform="matrix(1,0,0,1,156.302,-159.501)">
                <circle cx="-106.302" cy="209.501" r="13.501" style="fill:none;stroke:black;stroke-width:3px;"/>
            </g>
            <g transform="matrix(1,0,0,1,256.302,-159.501)">
                <circle cx="-106.302" cy="209.501" r="13.501" style="fill:none;stroke:black;stroke-width:3px;"/>
            </g>
            <g transform="matrix(1,0,0,1,356.302,-159.501)">
                <circle cx="-106.302" cy="209.501" r="13.501" style="fill:none;stroke:black;stroke-width:3px;"/>
            </g>
            <g transform="matrix(1,0,0,1,456.302,-159.501)">
                <circle cx="-106.302" cy="209.501" r="13.501" style="fill:none;stroke:black;stroke-width:3px;"/>
            </g>
            <g transform="matrix(1,0,0,1,556.302,-159.501)">
                <circle cx="-106.302" cy="209.501" r="13.501" style="fill:none;stroke:black;stroke-width:3px;"/>
            </g>
            <g transform="matrix(1,0,0,1,656.302,-159.501)">
                <circle cx="-106.302" cy="209.501" r="13.501" style="fill:none;stroke:black;stroke-width:3px;"/>
            </g>
        </g>
        <g transform="matrix(1,0,0,1,0,400)">
            <g transform="matrix(1,0,0,1,156.302,-159.501)">
                <circle cx="-106.302" cy="209.501" r="13.501" style="fill:none;stroke:black;stroke-width:3px;"/>
            </g>
            <g transform="matrix(1,0,0,1,256.302,-159.501)">
                <circle cx="-106.302" cy="209.501" r="13.501" style="fill:none;stroke:black;stroke-width:3px;"/>
            </g>
            <g transform="matrix(1,0,0,1,356.302,-159.501)">
                <circle cx="-106.302" cy="209.501" r="13.501" style="fill:none;stroke:black;stroke-width:3px;"/>
            </g>
            <g transform="matrix(1,0,0,1,456.302,-159.501)">
                <circle cx="-106.302" cy="209.501" r="13.501" style="fill:none;stroke:black;stroke-width:3px;"/>
            </g>
            <g transform="matrix(1,0,0,1,556.302,-159.501)">
                <circle cx="-106.302" cy="209.501" r="13.501" style="fill:none;stroke:black;stroke-width:3px;"/>
            </g>
            <g transform="matrix(1,0,0,1,656.302,-159.501)">
                <circle cx="-106.302" cy="209.501" r="13.501" style="fill:none;stroke:black;stroke-width:3px;"/>
            </g>
        </g>
        <g transform="matrix(1,0,0,1,0,500)">
            <g transform="matrix(1,0,0,1,156.302,-159.501)">
                <circle cx="-106.302" cy="209.501" r="13.501" style="fill:none;stroke:black;stroke-width:3px;"/>
            </g>
            <g transform="matrix(1,0,0,1,256.302,-159.501)">
                <circle cx="-106.302" cy="209.501" r="13.501" style="fill:none;stroke:black;stroke-width:3px;"/>
            </g>
            <g transform="matrix(1,0,0,1,356.302,-159.501)">
                <circle cx="-106.302" cy="209.501" r="13.501" style="fill:none;stroke:black;stroke-width:3px;"/>
            </g>
            <g transform="matrix(1,0,0,1,456.302,-159.501)">
                <circle cx="-106.302" cy="209.501" r="13.501" style="fill:none;stroke:black;stroke-width:3px;"/>
            </g>
            <g transform="matrix(1,0,0,1,556.302,-159.501)">
                <circle cx="-106.302" cy="209.501" r="13.501" style="fill:none;stroke:black;stroke-width:3px;"/>
            </g>
            <g transform="matrix(1,0,0,1,656.302,-159.501)">
                <circle cx="-106.302" cy="209.501" r="13.501" style="fill:none;stroke:black;stroke-width:3px;"/>
            </g>
        </g>
    </g>
</svg>
